<?xml version="1.0" encoding="UTF-8"?>
<!DOCTYPE svg PUBLIC "-//W3C//DTD SVG 1.1//EN" "http://www.w3.org/Graphics/SVG/1.1/DTD/svg11.dtd">
<!-- Creator: CorelDRAW -->
<svg xmlns="http://www.w3.org/2000/svg" xml:space="preserve" width="38.6144mm" height="38.6144mm" version="1.1" style="shape-rendering:geometricPrecision; text-rendering:geometricPrecision; image-rendering:optimizeQuality; fill-rule:evenodd; clip-rule:evenodd"
viewBox="0 0 626.89 626.89"
 xmlns:xlink="http://www.w3.org/1999/xlink"
 xmlns:xodm="http://www.corel.com/coreldraw/odm/2003">
 <defs>
  <style type="text/css">
   <![CDATA[
    .fil1 {fill:#104F96}
    .fil2 {fill:#F15B25}
    .fil0 {fill:white}
   ]]>
  </style>
 </defs>
 <g id="Camada_x0020_1">
  <metadata id="CorelCorpID_0Corel-Layer"/>
  <rect class="fil0" width="626.89" height="626.89"/>
  <g id="_1539068631152">
   <path class="fil1" d="M370.41 374.17l-42.82 78.97c-15.81,29.15 -25.41,36.57 -65.74,54.32l-65.4 30.34 70.42 -107.85c8.49,-12.5 19.15,-17.78 61.63,-36.91l41.92 -18.88zm70.93 -236.44l-215.07 128.26 229.8 -120.1 -14.73 -8.16zm-219.5 118.28l157.17 -144.58 15.18 6.09 -172.35 138.49zm-16.16 0.11l111.9 -165.15 16.95 4.37 -128.84 160.78zm14.98 25.16c-10.79,-0.16 -23.29,-5.72 -28.34,-12.2 -3.02,-3.88 -1.76,-6.77 0.89,-11.68l94.68 -175.17 -9.79 -0.48 -102.8 171.26c-3.49,5.81 -7.53,14.14 -8.52,20.96l-36.46 251c-3.16,11.61 13.57,20.15 22.27,20.18l44.04 -223.53c2.84,-14.43 6.07,-22.37 9.25,-25.56l14.78 -14.78z"/>
   <path class="fil2" d="M253.2 274.68c-15.93,6.78 -22.12,17.3 -26.83,32.91l-64.48 234.78 69.11 -180.47c4.78,-12.49 15.79,-21.47 28.12,-26.72l131.08 -55.72c49.5,-21.06 85.21,-59.63 106.76,-108.41l-243.77 103.63 0 0zm13.13 85.61c-18.05,7.68 -27.5,36.52 -34.68,53.15l-40 98.95c4.68,-7.11 39.75,-66.63 65.16,-99.85 23.66,-30.91 59.58,-38.04 94.86,-53.06 26.2,-11.14 47.41,-32.37 59.39,-59.41l0.72 -1.61 -145.46 61.82 0 0z"/>
  </g>
 </g>
</svg>
